<svg xmlns="http://www.w3.org/2000/svg" xmlns:xlink="http://www.w3.org/1999/xlink" width="3000" zoomAndPan="magnify" viewBox="0 0 2250 2250.000011" height="3000" preserveAspectRatio="xMidYMid meet" version="1.0"><defs><clipPath id="9426c8a682"><path d="M 225.398438 670 L 2024.601562 670 L 2024.601562 1578 L 225.398438 1578 Z M 225.398438 670 " clip-rule="nonzero"/></clipPath></defs><path fill="#33acf5" d="M 1022.410156 1396.59375 L 1022.410156 1261.199219 C 1022.410156 1257.03125 1020.066406 1252.867188 1016.421875 1250.78125 L 898.992188 1183.085938 L 898.992188 1064.875 L 1016.421875 997.175781 C 1020.066406 995.09375 1022.410156 990.925781 1022.410156 986.761719 L 1022.410156 851.367188 L 1103.910156 804.238281 L 1103.910156 1443.722656 Z M 1145.570312 804.238281 L 1145.570312 1443.722656 L 1227.066406 1396.59375 L 1227.066406 1261.199219 C 1227.066406 1257.03125 1229.410156 1252.867188 1233.054688 1250.78125 L 1350.484375 1183.085938 L 1350.484375 1064.875 L 1233.054688 997.175781 C 1229.410156 995.09375 1227.066406 991.1875 1227.066406 986.761719 L 1227.066406 851.367188 Z M 1145.570312 804.238281 " fill-opacity="1" fill-rule="nonzero"/><g clip-path="url(#9426c8a682)"><path fill="#0a86d1" d="M 495.148438 724.042969 L 471.714844 710.5 L 471.714844 683.683594 L 495.148438 670.144531 L 518.582031 683.683594 L 518.582031 710.5 Z M 225.398438 1110.441406 L 225.398438 1137.519531 L 248.832031 1151.058594 L 272.007812 1137.519531 L 272.007812 1110.441406 L 248.832031 1096.898438 Z M 1777.761719 710.5 L 1777.761719 683.683594 L 1754.328125 670.144531 L 1730.894531 683.683594 L 1730.894531 710.5 L 1754.328125 724.042969 Z M 1730.894531 1537.457031 L 1730.894531 1564.277344 L 1754.328125 1577.816406 L 1777.761719 1564.277344 L 1777.761719 1537.457031 L 1754.328125 1523.917969 Z M 348.558594 1323.949219 L 348.558594 1351.027344 L 371.992188 1364.308594 L 395.164062 1351.027344 L 395.164062 1323.949219 L 371.992188 1310.410156 Z M 2000.644531 1096.898438 L 1977.472656 1110.441406 L 1977.472656 1137.519531 L 2000.644531 1151.058594 L 2024.078125 1137.519531 L 2024.078125 1110.441406 Z M 1854.3125 897.191406 L 1854.3125 924.011719 L 1877.488281 937.550781 L 1900.921875 924.011719 L 1900.921875 897.191406 L 1877.488281 883.652344 Z M 1854.3125 1323.949219 L 1854.3125 1351.027344 L 1877.488281 1364.308594 L 1900.921875 1351.027344 L 1900.921875 1323.949219 L 1877.488281 1310.410156 Z M 471.714844 1537.457031 L 471.714844 1564.277344 L 495.148438 1577.816406 L 518.582031 1564.277344 L 518.582031 1537.457031 L 495.148438 1523.917969 Z M 348.558594 897.191406 L 348.558594 924.011719 L 371.992188 937.550781 L 395.164062 924.011719 L 395.164062 897.191406 L 371.992188 883.652344 Z M 348.558594 897.191406 " fill-opacity="1" fill-rule="nonzero"/></g><path fill="#1ba2f4" d="M 878.421875 1028.941406 C 872.695312 1025.558594 859.15625 1017.746094 826.609375 999 C 813.070312 991.1875 796.664062 981.554688 775.835938 969.578125 L 775.835938 851.367188 L 878.421875 792.261719 L 980.75 851.367188 L 980.75 969.578125 Z M 652.675781 1064.875 L 652.675781 1183.085938 L 755.003906 1242.191406 L 857.59375 1183.085938 L 857.59375 1064.875 L 755.003906 1005.769531 Z M 898.992188 756.328125 L 1001.582031 815.433594 C 1003.402344 814.390625 1003.925781 814.132812 1005.226562 813.351562 C 1009.132812 811.007812 1020.589844 804.496094 1103.910156 756.328125 L 1103.910156 637.855469 L 1001.582031 578.75 L 898.992188 637.855469 Z M 1473.644531 969.578125 L 1473.644531 851.367188 L 1371.054688 792.261719 L 1268.726562 851.367188 L 1268.726562 969.578125 L 1371.054688 1028.941406 C 1378.867188 1024.515625 1400.738281 1011.757812 1473.644531 969.578125 Z M 1145.570312 756.328125 C 1226.546875 803.195312 1236.960938 809.183594 1242.167969 812.046875 C 1243.992188 813.089844 1245.035156 813.871094 1247.898438 815.433594 L 1350.484375 756.328125 L 1350.484375 637.855469 L 1247.898438 578.75 L 1145.570312 637.855469 Z M 1371.054688 1455.699219 L 1473.644531 1396.59375 L 1473.644531 1278.382812 C 1445.261719 1261.71875 1424.171875 1249.480469 1408.808594 1240.367188 C 1383.8125 1225.785156 1374.179688 1220.320312 1370.796875 1218.496094 C 1369.492188 1219.277344 1367.148438 1220.578125 1363.765625 1222.660156 C 1351.789062 1229.953125 1325.75 1245.316406 1268.726562 1278.382812 C 1268.726562 1300.253906 1268.46875 1318.480469 1268.46875 1333.582031 L 1268.46875 1372.378906 C 1268.46875 1385.398438 1268.46875 1392.6875 1268.726562 1396.59375 Z M 1596.800781 1183.085938 L 1596.800781 1064.875 L 1494.472656 1005.769531 L 1391.886719 1064.875 L 1391.886719 1183.085938 L 1494.472656 1242.191406 Z M 980.75 1396.59375 C 981.011719 1392.425781 981.011719 1385.136719 981.011719 1371.859375 L 981.011719 1332.28125 C 981.011719 1317.4375 980.75 1299.734375 980.75 1278.382812 C 957.058594 1264.582031 938.308594 1253.648438 923.730469 1245.316406 C 894.828125 1228.390625 882.589844 1221.359375 878.683594 1218.757812 L 775.835938 1278.382812 L 775.835938 1396.59375 L 878.421875 1455.699219 C 898.992188 1443.980469 966.429688 1404.925781 980.75 1396.59375 Z M 1350.484375 1491.632812 L 1247.898438 1432.527344 C 1244.253906 1434.609375 1243.210938 1435.128906 1241.910156 1435.910156 C 1238.265625 1438.253906 1231.234375 1442.160156 1145.570312 1491.632812 L 1145.570312 1610.101562 C 1149.734375 1612.445312 1158.847656 1617.652344 1178.636719 1629.109375 C 1194 1637.960938 1216.132812 1650.722656 1247.898438 1669.207031 L 1350.484375 1610.101562 Z M 1103.910156 1491.632812 C 1022.410156 1444.503906 1012.515625 1438.773438 1007.050781 1435.648438 C 1005.488281 1434.867188 1004.183594 1434.085938 1001.582031 1432.527344 L 898.992188 1491.632812 L 898.992188 1610.101562 L 1001.582031 1669.207031 C 1021.371094 1657.75 1037.511719 1648.378906 1050.792969 1640.828125 C 1084.382812 1621.296875 1098.179688 1613.488281 1103.910156 1610.101562 Z M 1103.910156 1491.632812 " fill-opacity="1" fill-rule="nonzero"/><path fill="#0b96ea" d="M 625.078125 972.441406 L 571.699219 941.457031 L 571.699219 879.746094 L 625.078125 848.761719 L 678.714844 879.746094 L 678.714844 941.457031 Z M 931.019531 514.179688 L 931.019531 453.25 L 878.421875 422.785156 L 825.566406 453.25 L 825.566406 514.179688 L 878.421875 544.640625 Z M 792.761719 722.738281 L 792.761719 671.445312 L 748.234375 645.929688 L 703.972656 671.445312 L 703.972656 722.738281 L 748.234375 748.515625 Z M 1183.0625 546.203125 L 1183.0625 479.027344 L 1124.738281 445.179688 L 1066.414062 479.027344 L 1066.414062 546.203125 L 1124.738281 580.054688 Z M 1545.507812 722.738281 L 1545.507812 671.445312 L 1501.242188 645.929688 L 1456.71875 671.445312 L 1456.71875 722.738281 L 1501.242188 748.515625 Z M 1423.910156 514.179688 L 1423.910156 453.25 L 1371.054688 422.785156 L 1318.460938 453.25 L 1318.460938 514.179688 L 1371.054688 544.640625 Z M 1570.765625 1306.503906 L 1570.765625 1368.210938 L 1624.402344 1399.195312 L 1678.039062 1368.210938 L 1678.039062 1306.503906 L 1624.402344 1275.519531 Z M 1433.546875 1511.941406 L 1433.546875 1589.792969 L 1501.242188 1628.847656 L 1568.679688 1589.792969 L 1568.679688 1511.941406 L 1501.242188 1472.882812 Z M 1680.121094 1084.921875 L 1680.121094 1163.035156 L 1747.558594 1201.832031 L 1814.996094 1163.035156 L 1814.996094 1084.921875 L 1747.558594 1046.128906 Z M 1318.460938 1733.78125 L 1318.460938 1794.707031 L 1371.054688 1825.171875 L 1423.910156 1794.707031 L 1423.910156 1733.78125 L 1371.054688 1703.316406 Z M 1570.765625 879.746094 L 1570.765625 941.457031 L 1624.402344 972.441406 L 1678.039062 941.457031 L 1678.039062 879.746094 L 1624.402344 848.761719 Z M 434.480469 1084.921875 L 434.480469 1163.035156 L 501.917969 1201.832031 L 569.355469 1163.035156 L 569.355469 1084.921875 L 501.917969 1046.128906 Z M 571.699219 1306.503906 L 571.699219 1368.210938 L 625.078125 1399.195312 L 678.714844 1368.210938 L 678.714844 1306.503906 L 625.078125 1275.519531 Z M 680.796875 1511.941406 L 680.796875 1589.792969 L 748.234375 1628.847656 L 815.933594 1589.792969 L 815.933594 1511.941406 L 748.234375 1472.882812 Z M 1132.03125 1667.644531 C 1131.507812 1667.90625 1131.25 1668.167969 1130.726562 1668.425781 C 1127.082031 1670.507812 1122.394531 1670.507812 1118.75 1668.425781 C 1118.492188 1668.167969 1117.96875 1667.90625 1117.710938 1667.644531 C 1114.585938 1669.46875 1108.335938 1673.113281 1096.097656 1680.144531 C 1086.984375 1685.609375 1075.269531 1692.640625 1059.644531 1701.496094 L 1059.644531 1768.933594 L 1117.710938 1802.78125 C 1119.53125 1801.738281 1122.136719 1800.957031 1124.738281 1800.957031 C 1127.34375 1800.957031 1129.945312 1801.738281 1131.769531 1802.78125 L 1189.832031 1768.933594 L 1189.832031 1701.496094 C 1174.472656 1692.640625 1162.492188 1685.609375 1153.640625 1680.402344 C 1140.621094 1672.851562 1134.632812 1669.207031 1132.03125 1667.644531 Z M 825.566406 1733.78125 L 825.566406 1794.707031 L 878.421875 1825.171875 L 931.019531 1794.707031 L 931.019531 1733.78125 L 878.421875 1703.316406 Z M 825.566406 1733.78125 " fill-opacity="1" fill-rule="nonzero"/></svg>