<svg xmlns="http://www.w3.org/2000/svg" xmlns:xlink="http://www.w3.org/1999/xlink" width="3000" zoomAndPan="magnify" viewBox="0 0 2250 2250.000011" height="3000" preserveAspectRatio="xMidYMid meet" version="1.0"><defs><g/><clipPath id="c2db9962cf"><path d="M 596.769531 593 L 1653 593 L 1653 1127 L 596.769531 1127 Z M 596.769531 593 " clip-rule="nonzero"/></clipPath><clipPath id="ea2f7ae627"><rect x="0" width="1182" y="0" height="401"/></clipPath><clipPath id="25756b6d9e"><rect x="0" width="1078" y="0" height="95"/></clipPath></defs><path fill="#33acf5" d="M 1064.761719 1019.757812 L 1064.761719 940.257812 C 1064.761719 937.8125 1063.382812 935.363281 1061.242188 934.140625 L 992.292969 894.390625 L 992.292969 824.980469 L 1061.242188 785.230469 C 1063.382812 784.007812 1064.761719 781.558594 1064.761719 779.113281 L 1064.761719 699.613281 L 1112.613281 671.9375 L 1112.613281 1047.433594 Z M 1137.074219 671.9375 L 1137.074219 1047.433594 L 1184.929688 1019.757812 L 1184.929688 940.257812 C 1184.929688 937.8125 1186.304688 935.363281 1188.445312 934.140625 L 1257.398438 894.390625 L 1257.398438 824.980469 L 1188.445312 785.230469 C 1186.304688 784.007812 1184.929688 781.710938 1184.929688 779.113281 L 1184.929688 699.613281 Z M 1137.074219 671.9375 " fill-opacity="1" fill-rule="nonzero"/><g clip-path="url(#c2db9962cf)"><path fill="#0a86d1" d="M 755.160156 624.847656 L 741.402344 616.898438 L 741.402344 601.152344 L 755.160156 593.203125 L 768.921875 601.152344 L 768.921875 616.898438 Z M 596.769531 851.734375 L 596.769531 867.636719 L 610.53125 875.585938 L 624.136719 867.636719 L 624.136719 851.734375 L 610.53125 843.785156 Z M 1508.289062 616.898438 L 1508.289062 601.152344 L 1494.527344 593.203125 L 1480.769531 601.152344 L 1480.769531 616.898438 L 1494.527344 624.847656 Z M 1480.769531 1102.472656 L 1480.769531 1118.21875 L 1494.527344 1126.167969 L 1508.289062 1118.21875 L 1508.289062 1102.472656 L 1494.527344 1094.523438 Z M 669.085938 977.105469 L 669.085938 993.003906 L 682.847656 1000.800781 L 696.453125 993.003906 L 696.453125 977.105469 L 682.847656 969.152344 Z M 1639.160156 843.785156 L 1625.554688 851.734375 L 1625.554688 867.636719 L 1639.160156 875.585938 L 1652.921875 867.636719 L 1652.921875 851.734375 Z M 1553.238281 726.519531 L 1553.238281 742.265625 L 1566.84375 750.21875 L 1580.605469 742.265625 L 1580.605469 726.519531 L 1566.84375 718.570312 Z M 1553.238281 977.105469 L 1553.238281 993.003906 L 1566.84375 1000.800781 L 1580.605469 993.003906 L 1580.605469 977.105469 L 1566.84375 969.152344 Z M 741.402344 1102.472656 L 741.402344 1118.21875 L 755.160156 1126.167969 L 768.921875 1118.21875 L 768.921875 1102.472656 L 755.160156 1094.523438 Z M 669.085938 726.519531 L 669.085938 742.265625 L 682.847656 750.21875 L 696.453125 742.265625 L 696.453125 726.519531 L 682.847656 718.570312 Z M 669.085938 726.519531 " fill-opacity="1" fill-rule="nonzero"/></g><path fill="#1ba2f4" d="M 980.214844 803.882812 C 976.847656 801.894531 968.898438 797.308594 949.789062 786.300781 C 941.839844 781.710938 932.207031 776.054688 919.976562 769.023438 L 919.976562 699.613281 L 980.214844 664.90625 L 1040.296875 699.613281 L 1040.296875 769.023438 Z M 847.660156 824.980469 L 847.660156 894.390625 L 907.742188 929.097656 L 967.980469 894.390625 L 967.980469 824.980469 L 907.742188 790.273438 Z M 992.292969 643.808594 L 1052.527344 678.511719 C 1053.597656 677.902344 1053.90625 677.75 1054.667969 677.289062 C 1056.960938 675.914062 1063.691406 672.09375 1112.613281 643.808594 L 1112.613281 574.242188 L 1052.527344 539.539062 L 992.292969 574.242188 Z M 1329.714844 769.023438 L 1329.714844 699.613281 L 1269.476562 664.90625 L 1209.390625 699.613281 L 1209.390625 769.023438 L 1269.476562 803.882812 C 1274.0625 801.28125 1286.90625 793.789062 1329.714844 769.023438 Z M 1137.074219 643.808594 C 1184.625 671.328125 1190.738281 674.84375 1193.796875 676.527344 C 1194.867188 677.136719 1195.480469 677.597656 1197.160156 678.511719 L 1257.398438 643.808594 L 1257.398438 574.242188 L 1197.160156 539.539062 L 1137.074219 574.242188 Z M 1269.476562 1054.464844 L 1329.714844 1019.757812 L 1329.714844 950.347656 C 1313.050781 940.5625 1300.667969 933.378906 1291.644531 928.027344 C 1276.96875 919.464844 1271.3125 916.253906 1269.324219 915.183594 C 1268.558594 915.640625 1267.183594 916.40625 1265.195312 917.628906 C 1258.164062 921.910156 1242.875 930.929688 1209.390625 950.347656 C 1209.390625 963.191406 1209.238281 973.894531 1209.238281 982.761719 L 1209.238281 1005.539062 C 1209.238281 1013.183594 1209.238281 1017.464844 1209.390625 1019.757812 Z M 1402.03125 894.390625 L 1402.03125 824.980469 L 1341.945312 790.273438 L 1281.707031 824.980469 L 1281.707031 894.390625 L 1341.945312 929.097656 Z M 1040.296875 1019.757812 C 1040.449219 1017.3125 1040.449219 1013.03125 1040.449219 1005.234375 L 1040.449219 981.996094 C 1040.449219 973.28125 1040.296875 962.886719 1040.296875 950.347656 C 1026.386719 942.246094 1015.378906 935.824219 1006.816406 930.929688 C 989.84375 920.992188 982.660156 916.867188 980.367188 915.335938 L 919.976562 950.347656 L 919.976562 1019.757812 L 980.214844 1054.464844 C 992.292969 1047.585938 1031.890625 1024.652344 1040.296875 1019.757812 Z M 1257.398438 1075.5625 L 1197.160156 1040.859375 C 1195.019531 1042.082031 1194.410156 1042.386719 1193.644531 1042.84375 C 1191.503906 1044.222656 1187.375 1046.515625 1137.074219 1075.5625 L 1137.074219 1145.128906 C 1139.523438 1146.503906 1144.875 1149.5625 1156.492188 1156.289062 C 1165.511719 1161.488281 1178.507812 1168.976562 1197.160156 1179.832031 L 1257.398438 1145.128906 Z M 1112.613281 1075.5625 C 1064.761719 1047.890625 1058.949219 1044.527344 1055.738281 1042.691406 C 1054.824219 1042.234375 1054.058594 1041.773438 1052.527344 1040.859375 L 992.292969 1075.5625 L 992.292969 1145.128906 L 1052.527344 1179.832031 C 1064.148438 1173.105469 1073.628906 1167.601562 1081.425781 1163.167969 C 1101.148438 1151.703125 1109.25 1147.113281 1112.613281 1145.128906 Z M 1112.613281 1075.5625 " fill-opacity="1" fill-rule="nonzero"/><path fill="#0b96ea" d="M 831.453125 770.703125 L 800.109375 752.511719 L 800.109375 716.277344 L 831.453125 698.082031 L 862.949219 716.277344 L 862.949219 752.511719 Z M 1011.097656 501.621094 L 1011.097656 465.847656 L 980.214844 447.957031 L 949.175781 465.847656 L 949.175781 501.621094 L 980.214844 519.507812 Z M 929.914062 624.085938 L 929.914062 593.964844 L 903.769531 578.984375 L 877.777344 593.964844 L 877.777344 624.085938 L 903.769531 639.222656 Z M 1159.09375 520.425781 L 1159.09375 480.980469 L 1124.84375 461.105469 L 1090.597656 480.980469 L 1090.597656 520.425781 L 1124.84375 540.300781 Z M 1371.914062 624.085938 L 1371.914062 593.964844 L 1345.921875 578.984375 L 1319.777344 593.964844 L 1319.777344 624.085938 L 1345.921875 639.222656 Z M 1300.511719 501.621094 L 1300.511719 465.847656 L 1269.476562 447.957031 L 1238.59375 465.847656 L 1238.59375 501.621094 L 1269.476562 519.507812 Z M 1386.742188 966.859375 L 1386.742188 1003.09375 L 1418.238281 1021.289062 L 1449.730469 1003.09375 L 1449.730469 966.859375 L 1418.238281 948.667969 Z M 1306.171875 1087.488281 L 1306.171875 1133.203125 L 1345.921875 1156.136719 L 1385.519531 1133.203125 L 1385.519531 1087.488281 L 1345.921875 1064.554688 Z M 1450.957031 836.753906 L 1450.957031 882.617188 L 1490.554688 905.398438 L 1530.152344 882.617188 L 1530.152344 836.753906 L 1490.554688 813.972656 Z M 1238.59375 1217.75 L 1238.59375 1253.523438 L 1269.476562 1271.414062 L 1300.511719 1253.523438 L 1300.511719 1217.75 L 1269.476562 1199.863281 Z M 1386.742188 716.277344 L 1386.742188 752.511719 L 1418.238281 770.703125 L 1449.730469 752.511719 L 1449.730469 716.277344 L 1418.238281 698.082031 Z M 719.539062 836.753906 L 719.539062 882.617188 L 759.136719 905.398438 L 798.734375 882.617188 L 798.734375 836.753906 L 759.136719 813.972656 Z M 800.109375 966.859375 L 800.109375 1003.09375 L 831.453125 1021.289062 L 862.949219 1003.09375 L 862.949219 966.859375 L 831.453125 948.667969 Z M 864.171875 1087.488281 L 864.171875 1133.203125 L 903.769531 1156.136719 L 943.519531 1133.203125 L 943.519531 1087.488281 L 903.769531 1064.554688 Z M 1129.125 1178.914062 C 1128.820312 1179.070312 1128.667969 1179.222656 1128.363281 1179.375 C 1126.222656 1180.597656 1123.46875 1180.597656 1121.328125 1179.375 C 1121.175781 1179.222656 1120.871094 1179.070312 1120.71875 1178.914062 C 1118.882812 1179.984375 1115.214844 1182.125 1108.027344 1186.253906 C 1102.675781 1189.464844 1095.796875 1193.59375 1086.625 1198.792969 L 1086.625 1238.390625 L 1120.71875 1258.265625 C 1121.789062 1257.652344 1123.316406 1257.195312 1124.84375 1257.195312 C 1126.375 1257.195312 1127.902344 1257.652344 1128.972656 1258.265625 L 1163.066406 1238.390625 L 1163.066406 1198.792969 C 1154.046875 1193.59375 1147.015625 1189.464844 1141.816406 1186.40625 C 1134.171875 1181.972656 1130.65625 1179.832031 1129.125 1178.914062 Z M 949.175781 1217.75 L 949.175781 1253.523438 L 980.214844 1271.414062 L 1011.097656 1253.523438 L 1011.097656 1217.75 L 980.214844 1199.863281 Z M 949.175781 1217.75 " fill-opacity="1" fill-rule="nonzero"/><g transform="matrix(1, 0, 0, 1, 540, 1336)"><g clip-path="url(#ea2f7ae627)"><g fill="#ffffff" fill-opacity="1"><g transform="translate(0.435562, 298.991853)"><g><path d="M 7.921875 -78.984375 C 7.921875 -95.398438 11.269531 -109.742188 17.96875 -122.015625 C 24.675781 -134.285156 34.019531 -143.722656 46 -150.328125 C 57.988281 -156.929688 71.71875 -160.234375 87.1875 -160.234375 C 107.007812 -160.234375 123.570312 -155.039062 136.875 -144.65625 C 150.175781 -134.28125 158.90625 -119.65625 163.0625 -100.78125 L 111.53125 -100.78125 C 107.195312 -112.863281 98.800781 -118.90625 86.34375 -118.90625 C 77.46875 -118.90625 70.390625 -115.457031 65.109375 -108.5625 C 59.828125 -101.675781 57.1875 -91.816406 57.1875 -78.984375 C 57.1875 -66.148438 59.828125 -56.285156 65.109375 -49.390625 C 70.390625 -42.503906 77.46875 -39.0625 86.34375 -39.0625 C 98.800781 -39.0625 107.195312 -45.101562 111.53125 -57.1875 L 163.0625 -57.1875 C 158.90625 -38.6875 150.128906 -24.148438 136.734375 -13.578125 C 123.335938 -3.015625 106.820312 2.265625 87.1875 2.265625 C 71.71875 2.265625 57.988281 -1.035156 46 -7.640625 C 34.019531 -14.242188 24.675781 -23.679688 17.96875 -35.953125 C 11.269531 -48.222656 7.921875 -62.566406 7.921875 -78.984375 Z M 7.921875 -78.984375 "/></g></g></g><g fill="#ffffff" fill-opacity="1"><g transform="translate(171.685566, 298.991853)"><g><path d="M 89.453125 2.265625 C 73.984375 2.265625 60.066406 -1.035156 47.703125 -7.640625 C 35.335938 -14.242188 25.613281 -23.679688 18.53125 -35.953125 C 11.457031 -48.222656 7.921875 -62.566406 7.921875 -78.984375 C 7.921875 -95.210938 11.503906 -109.507812 18.671875 -121.875 C 25.847656 -134.238281 35.664062 -143.722656 48.125 -150.328125 C 60.582031 -156.929688 74.550781 -160.234375 90.03125 -160.234375 C 105.5 -160.234375 119.460938 -156.929688 131.921875 -150.328125 C 144.378906 -143.722656 154.191406 -134.238281 161.359375 -121.875 C 168.535156 -109.507812 172.125 -95.210938 172.125 -78.984375 C 172.125 -62.753906 168.488281 -48.457031 161.21875 -36.09375 C 153.957031 -23.726562 144.050781 -14.242188 131.5 -7.640625 C 118.945312 -1.035156 104.929688 2.265625 89.453125 2.265625 Z M 89.453125 -39.640625 C 98.703125 -39.640625 106.582031 -43.035156 113.09375 -49.828125 C 119.601562 -56.617188 122.859375 -66.335938 122.859375 -78.984375 C 122.859375 -91.628906 119.695312 -101.347656 113.375 -108.140625 C 107.050781 -114.929688 99.269531 -118.328125 90.03125 -118.328125 C 80.59375 -118.328125 72.757812 -114.976562 66.53125 -108.28125 C 60.300781 -101.582031 57.1875 -91.816406 57.1875 -78.984375 C 57.1875 -66.335938 60.253906 -56.617188 66.390625 -49.828125 C 72.523438 -43.035156 80.210938 -39.640625 89.453125 -39.640625 Z M 89.453125 -39.640625 "/></g></g></g><g fill="#ffffff" fill-opacity="1"><g transform="translate(351.993378, 298.991853)"><g><path d="M 7.921875 -79.265625 C 7.921875 -95.492188 10.988281 -109.742188 17.125 -122.015625 C 23.257812 -134.285156 31.609375 -143.722656 42.171875 -150.328125 C 52.742188 -156.929688 64.539062 -160.234375 77.5625 -160.234375 C 87.945312 -160.234375 97.429688 -158.0625 106.015625 -153.71875 C 114.609375 -149.375 121.359375 -143.523438 126.265625 -136.171875 L 126.265625 -209.484375 L 174.671875 -209.484375 L 174.671875 0 L 126.265625 0 L 126.265625 -22.640625 C 121.734375 -15.097656 115.265625 -9.0625 106.859375 -4.53125 C 98.460938 0 88.695312 2.265625 77.5625 2.265625 C 64.539062 2.265625 52.742188 -1.082031 42.171875 -7.78125 C 31.609375 -14.476562 23.257812 -24.007812 17.125 -36.375 C 10.988281 -48.738281 7.921875 -63.035156 7.921875 -79.265625 Z M 126.265625 -78.984375 C 126.265625 -91.054688 122.910156 -100.582031 116.203125 -107.5625 C 109.503906 -114.550781 101.34375 -118.046875 91.71875 -118.046875 C 82.09375 -118.046875 73.929688 -114.601562 67.234375 -107.71875 C 60.535156 -100.832031 57.1875 -91.347656 57.1875 -79.265625 C 57.1875 -67.179688 60.535156 -57.601562 67.234375 -50.53125 C 73.929688 -43.457031 82.09375 -39.921875 91.71875 -39.921875 C 101.34375 -39.921875 109.503906 -43.410156 116.203125 -50.390625 C 122.910156 -57.367188 126.265625 -66.898438 126.265625 -78.984375 Z M 126.265625 -78.984375 "/></g></g></g><g fill="#ffffff" fill-opacity="1"><g transform="translate(544.189638, 298.991853)"><g><path d="M 166.453125 -81.53125 C 166.453125 -77 166.171875 -72.28125 165.609375 -67.375 L 56.046875 -67.375 C 56.804688 -57.5625 59.96875 -50.054688 65.53125 -44.859375 C 71.101562 -39.671875 77.945312 -37.078125 86.0625 -37.078125 C 98.132812 -37.078125 106.53125 -42.175781 111.25 -52.375 L 162.78125 -52.375 C 160.132812 -41.988281 155.367188 -32.644531 148.484375 -24.34375 C 141.597656 -16.039062 132.960938 -9.53125 122.578125 -4.8125 C 112.203125 -0.09375 100.597656 2.265625 87.765625 2.265625 C 72.285156 2.265625 58.503906 -1.035156 46.421875 -7.640625 C 34.347656 -14.242188 24.910156 -23.679688 18.109375 -35.953125 C 11.316406 -48.222656 7.921875 -62.566406 7.921875 -78.984375 C 7.921875 -95.398438 11.269531 -109.742188 17.96875 -122.015625 C 24.675781 -134.285156 34.066406 -143.722656 46.140625 -150.328125 C 58.222656 -156.929688 72.097656 -160.234375 87.765625 -160.234375 C 103.046875 -160.234375 116.628906 -157.023438 128.515625 -150.609375 C 140.410156 -144.191406 149.707031 -135.035156 156.40625 -123.140625 C 163.101562 -111.253906 166.453125 -97.382812 166.453125 -81.53125 Z M 116.921875 -94.265625 C 116.921875 -102.566406 114.085938 -109.171875 108.421875 -114.078125 C 102.765625 -118.992188 95.6875 -121.453125 87.1875 -121.453125 C 79.070312 -121.453125 72.226562 -119.09375 66.65625 -114.375 C 61.09375 -109.65625 57.648438 -102.953125 56.328125 -94.265625 Z M 116.921875 -94.265625 "/></g></g></g><g fill="#ffffff" fill-opacity="1"><g transform="translate(718.553224, 298.991853)"><g><path d="M 40.203125 2.265625 C 31.703125 2.265625 24.765625 -0.234375 19.390625 -5.234375 C 14.015625 -10.234375 11.328125 -16.414062 11.328125 -23.78125 C 11.328125 -31.332031 14.015625 -37.65625 19.390625 -42.75 C 24.765625 -47.84375 31.703125 -50.390625 40.203125 -50.390625 C 48.503906 -50.390625 55.34375 -47.84375 60.71875 -42.75 C 66.101562 -37.65625 68.796875 -31.332031 68.796875 -23.78125 C 68.796875 -16.414062 66.101562 -10.234375 60.71875 -5.234375 C 55.34375 -0.234375 48.503906 2.265625 40.203125 2.265625 Z M 40.203125 2.265625 "/></g></g></g><g fill="#ffffff" fill-opacity="1"><g transform="translate(798.375562, 298.991853)"><g><path d="M 65.953125 -135.609375 C 70.671875 -142.960938 77.179688 -148.90625 85.484375 -153.4375 C 93.796875 -157.96875 103.519531 -160.234375 114.65625 -160.234375 C 127.675781 -160.234375 139.46875 -156.929688 150.03125 -150.328125 C 160.601562 -143.722656 168.957031 -134.285156 175.09375 -122.015625 C 181.226562 -109.742188 184.296875 -95.492188 184.296875 -79.265625 C 184.296875 -63.035156 181.226562 -48.738281 175.09375 -36.375 C 168.957031 -24.007812 160.601562 -14.476562 150.03125 -7.78125 C 139.46875 -1.082031 127.675781 2.265625 114.65625 2.265625 C 103.707031 2.265625 94.03125 0 85.625 -4.53125 C 77.226562 -9.0625 70.671875 -14.910156 65.953125 -22.078125 L 65.953125 75.296875 L 17.546875 75.296875 L 17.546875 -157.96875 L 65.953125 -157.96875 Z M 135.03125 -79.265625 C 135.03125 -91.347656 131.679688 -100.832031 124.984375 -107.71875 C 118.285156 -114.601562 110.03125 -118.046875 100.21875 -118.046875 C 90.59375 -118.046875 82.425781 -114.550781 75.71875 -107.5625 C 69.019531 -100.582031 65.671875 -91.054688 65.671875 -78.984375 C 65.671875 -66.898438 69.019531 -57.367188 75.71875 -50.390625 C 82.425781 -43.410156 90.59375 -39.921875 100.21875 -39.921875 C 109.84375 -39.921875 118.050781 -43.457031 124.84375 -50.53125 C 131.632812 -57.601562 135.03125 -67.179688 135.03125 -79.265625 Z M 135.03125 -79.265625 "/></g></g></g><g fill="#ffffff" fill-opacity="1"><g transform="translate(990.571821, 298.991853)"><g><path d="M 178.921875 -157.96875 L 79.828125 75.015625 L 27.75 75.015625 L 63.984375 -5.375 L -0.28125 -157.96875 L 53.78125 -157.96875 L 90.3125 -59.171875 L 126.546875 -157.96875 Z M 178.921875 -157.96875 "/></g></g></g></g></g><g transform="matrix(1, 0, 0, 1, 596, 1709)"><g clip-path="url(#25756b6d9e)"><g fill="#008bf9" fill-opacity="1"><g transform="translate(0.582211, 69.560761)"><g><path d="M 29 -52.578125 C 33.65625 -52.578125 37.695312 -51.800781 41.125 -50.25 C 44.550781 -48.695312 47.191406 -46.492188 49.046875 -43.640625 C 50.898438 -40.785156 51.828125 -37.40625 51.828125 -33.5 C 51.828125 -29.644531 50.898438 -26.273438 49.046875 -23.390625 C 47.191406 -20.515625 44.550781 -18.3125 41.125 -16.78125 C 37.695312 -15.257812 33.65625 -14.5 29 -14.5 L 18.40625 -14.5 L 18.40625 0 L 6.234375 0 L 6.234375 -52.578125 Z M 28.3125 -24.40625 C 31.96875 -24.40625 34.742188 -25.191406 36.640625 -26.765625 C 38.546875 -28.347656 39.5 -30.59375 39.5 -33.5 C 39.5 -36.457031 38.546875 -38.722656 36.640625 -40.296875 C 34.742188 -41.867188 31.96875 -42.65625 28.3125 -42.65625 L 18.40625 -42.65625 L 18.40625 -24.40625 Z M 28.3125 -24.40625 "/></g></g></g><g fill="#008bf9" fill-opacity="1"><g transform="translate(71.033815, 69.560761)"><g><path d="M 39.734375 0 L 29.59375 -14.640625 L 18.40625 -14.640625 L 18.40625 0 L 6.234375 0 L 6.234375 -52.578125 L 29 -52.578125 C 33.65625 -52.578125 37.695312 -51.800781 41.125 -50.25 C 44.550781 -48.695312 47.191406 -46.492188 49.046875 -43.640625 C 50.898438 -40.785156 51.828125 -37.40625 51.828125 -33.5 C 51.828125 -29.59375 50.882812 -26.222656 49 -23.390625 C 47.125 -20.566406 44.460938 -18.40625 41.015625 -16.90625 L 52.796875 0 Z M 39.5 -33.5 C 39.5 -36.457031 38.546875 -38.722656 36.640625 -40.296875 C 34.742188 -41.867188 31.96875 -42.65625 28.3125 -42.65625 L 18.40625 -42.65625 L 18.40625 -24.328125 L 28.3125 -24.328125 C 31.96875 -24.328125 34.742188 -25.128906 36.640625 -26.734375 C 38.546875 -28.335938 39.5 -30.59375 39.5 -33.5 Z M 39.5 -33.5 "/></g></g></g><g fill="#008bf9" fill-opacity="1"><g transform="translate(141.71081, 69.560761)"><g><path d="M 31.703125 0.90625 C 26.242188 0.90625 21.320312 -0.269531 16.9375 -2.625 C 12.550781 -4.976562 9.117188 -8.21875 6.640625 -12.34375 C 4.160156 -16.476562 2.921875 -21.125 2.921875 -26.28125 C 2.921875 -31.445312 4.160156 -36.09375 6.640625 -40.21875 C 9.117188 -44.351562 12.550781 -47.597656 16.9375 -49.953125 C 21.320312 -52.304688 26.242188 -53.484375 31.703125 -53.484375 C 37.160156 -53.484375 42.066406 -52.304688 46.421875 -49.953125 C 50.773438 -47.597656 54.203125 -44.351562 56.703125 -40.21875 C 59.210938 -36.09375 60.46875 -31.445312 60.46875 -26.28125 C 60.46875 -21.125 59.210938 -16.476562 56.703125 -12.34375 C 54.203125 -8.21875 50.773438 -4.976562 46.421875 -2.625 C 42.066406 -0.269531 37.160156 0.90625 31.703125 0.90625 Z M 31.703125 -9.46875 C 34.804688 -9.46875 37.609375 -10.179688 40.109375 -11.609375 C 42.609375 -13.035156 44.570312 -15.023438 46 -17.578125 C 47.425781 -20.128906 48.140625 -23.03125 48.140625 -26.28125 C 48.140625 -29.539062 47.425781 -32.445312 46 -35 C 44.570312 -37.550781 42.609375 -39.539062 40.109375 -40.96875 C 37.609375 -42.394531 34.804688 -43.109375 31.703125 -43.109375 C 28.597656 -43.109375 25.789062 -42.394531 23.28125 -40.96875 C 20.78125 -39.539062 18.816406 -37.550781 17.390625 -35 C 15.960938 -32.445312 15.25 -29.539062 15.25 -26.28125 C 15.25 -23.03125 15.960938 -20.128906 17.390625 -17.578125 C 18.816406 -15.023438 20.78125 -13.035156 23.28125 -11.609375 C 25.789062 -10.179688 28.597656 -9.46875 31.703125 -9.46875 Z M 31.703125 -9.46875 "/></g></g></g><g fill="#008bf9" fill-opacity="1"><g transform="translate(220.574573, 69.560761)"><g><path d="M 41.765625 -27.109375 L 52.875 -27.109375 L 52.875 -5.78125 C 50.019531 -3.625 46.710938 -1.96875 42.953125 -0.8125 C 39.203125 0.332031 35.425781 0.90625 31.625 0.90625 C 26.164062 0.90625 21.253906 -0.253906 16.890625 -2.578125 C 12.535156 -4.910156 9.117188 -8.144531 6.640625 -12.28125 C 4.160156 -16.414062 2.921875 -21.082031 2.921875 -26.28125 C 2.921875 -31.488281 4.160156 -36.160156 6.640625 -40.296875 C 9.117188 -44.429688 12.5625 -47.660156 16.96875 -49.984375 C 21.375 -52.316406 26.332031 -53.484375 31.84375 -53.484375 C 36.445312 -53.484375 40.625 -52.707031 44.375 -51.15625 C 48.132812 -49.601562 51.296875 -47.347656 53.859375 -44.390625 L 46.046875 -37.171875 C 42.285156 -41.128906 37.753906 -43.109375 32.453125 -43.109375 C 29.097656 -43.109375 26.117188 -42.40625 23.515625 -41 C 20.910156 -39.601562 18.878906 -37.628906 17.421875 -35.078125 C 15.972656 -32.523438 15.25 -29.59375 15.25 -26.28125 C 15.25 -23.03125 15.972656 -20.128906 17.421875 -17.578125 C 18.878906 -15.023438 20.894531 -13.035156 23.46875 -11.609375 C 26.050781 -10.179688 28.992188 -9.46875 32.296875 -9.46875 C 35.804688 -9.46875 38.960938 -10.21875 41.765625 -11.71875 Z M 41.765625 -27.109375 "/></g></g></g><g fill="#008bf9" fill-opacity="1"><g transform="translate(293.955405, 69.560761)"><g><path d="M 39.734375 0 L 29.59375 -14.640625 L 18.40625 -14.640625 L 18.40625 0 L 6.234375 0 L 6.234375 -52.578125 L 29 -52.578125 C 33.65625 -52.578125 37.695312 -51.800781 41.125 -50.25 C 44.550781 -48.695312 47.191406 -46.492188 49.046875 -43.640625 C 50.898438 -40.785156 51.828125 -37.40625 51.828125 -33.5 C 51.828125 -29.59375 50.882812 -26.222656 49 -23.390625 C 47.125 -20.566406 44.460938 -18.40625 41.015625 -16.90625 L 52.796875 0 Z M 39.5 -33.5 C 39.5 -36.457031 38.546875 -38.722656 36.640625 -40.296875 C 34.742188 -41.867188 31.96875 -42.65625 28.3125 -42.65625 L 18.40625 -42.65625 L 18.40625 -24.328125 L 28.3125 -24.328125 C 31.96875 -24.328125 34.742188 -25.128906 36.640625 -26.734375 C 38.546875 -28.335938 39.5 -30.59375 39.5 -33.5 Z M 39.5 -33.5 "/></g></g></g><g fill="#008bf9" fill-opacity="1"><g transform="translate(364.6324, 69.560761)"><g><path d="M 40.859375 -11.265625 L 16.453125 -11.265625 L 11.796875 0 L -0.671875 0 L 22.765625 -52.578125 L 34.78125 -52.578125 L 58.28125 0 L 45.515625 0 Z M 37.03125 -20.5 L 28.6875 -40.640625 L 20.359375 -20.5 Z M 37.03125 -20.5 "/></g></g></g><g fill="#008bf9" fill-opacity="1"><g transform="translate(437.637707, 69.560761)"><g><path d="M 54.078125 0 L 54 -31.546875 L 38.53125 -5.5625 L 33.046875 -5.5625 L 17.65625 -30.875 L 17.65625 0 L 6.234375 0 L 6.234375 -52.578125 L 16.296875 -52.578125 L 35.984375 -19.90625 L 55.359375 -52.578125 L 65.34375 -52.578125 L 65.5 0 Z M 54.078125 0 "/></g></g></g><g fill="#008bf9" fill-opacity="1"><g transform="translate(524.838562, 69.560761)"><g><path d="M 40.859375 -11.265625 L 16.453125 -11.265625 L 11.796875 0 L -0.671875 0 L 22.765625 -52.578125 L 34.78125 -52.578125 L 58.28125 0 L 45.515625 0 Z M 37.03125 -20.5 L 28.6875 -40.640625 L 20.359375 -20.5 Z M 37.03125 -20.5 "/></g></g></g><g fill="#008bf9" fill-opacity="1"><g transform="translate(597.843869, 69.560761)"><g><path d="M 31.390625 0.90625 C 26.035156 0.90625 21.191406 -0.253906 16.859375 -2.578125 C 12.523438 -4.910156 9.117188 -8.144531 6.640625 -12.28125 C 4.160156 -16.414062 2.921875 -21.082031 2.921875 -26.28125 C 2.921875 -31.488281 4.160156 -36.160156 6.640625 -40.296875 C 9.117188 -44.429688 12.523438 -47.660156 16.859375 -49.984375 C 21.191406 -52.316406 26.0625 -53.484375 31.46875 -53.484375 C 36.03125 -53.484375 40.148438 -52.679688 43.828125 -51.078125 C 47.503906 -49.472656 50.597656 -47.171875 53.109375 -44.171875 L 45.296875 -36.953125 C 41.734375 -41.054688 37.328125 -43.109375 32.078125 -43.109375 C 28.816406 -43.109375 25.910156 -42.394531 23.359375 -40.96875 C 20.804688 -39.539062 18.816406 -37.550781 17.390625 -35 C 15.960938 -32.445312 15.25 -29.539062 15.25 -26.28125 C 15.25 -23.03125 15.960938 -20.128906 17.390625 -17.578125 C 18.816406 -15.023438 20.804688 -13.035156 23.359375 -11.609375 C 25.910156 -10.179688 28.816406 -9.46875 32.078125 -9.46875 C 37.328125 -9.46875 41.734375 -11.546875 45.296875 -15.703125 L 53.109375 -8.484375 C 50.597656 -5.429688 47.488281 -3.101562 43.78125 -1.5 C 40.082031 0.101562 35.953125 0.90625 31.390625 0.90625 Z M 27.328125 17.421875 C 26.023438 17.421875 24.75 17.28125 23.5 17 C 22.25 16.726562 21.195312 16.34375 20.34375 15.84375 L 22.15625 10.8125 C 23.75 11.5625 25.375 11.9375 27.03125 11.9375 C 29.632812 11.9375 30.9375 11.132812 30.9375 9.53125 C 30.9375 8.082031 29.707031 7.359375 27.25 7.359375 L 24.703125 7.359375 L 26.65625 -0.59375 L 32.890625 -0.59375 L 31.84375 3.75 C 34.039062 4 35.675781 4.6875 36.75 5.8125 C 37.832031 6.945312 38.375 8.335938 38.375 9.984375 C 38.375 12.285156 37.367188 14.097656 35.359375 15.421875 C 33.359375 16.753906 30.679688 17.421875 27.328125 17.421875 Z M 27.328125 17.421875 "/></g></g></g><g fill="#008bf9" fill-opacity="1"><g transform="translate(668.370635, 69.560761)"><g><path d="M 40.859375 -11.265625 L 16.453125 -11.265625 L 11.796875 0 L -0.671875 0 L 22.765625 -52.578125 L 34.78125 -52.578125 L 58.28125 0 L 45.515625 0 Z M 37.03125 -20.5 L 28.6875 -40.640625 L 20.359375 -20.5 Z M 34.390625 -56.625 C 33.046875 -56.625 31.859375 -56.882812 30.828125 -57.40625 C 29.804688 -57.9375 28.664062 -58.65625 27.40625 -59.5625 C 26.601562 -60.164062 25.941406 -60.613281 25.421875 -60.90625 C 24.898438 -61.207031 24.382812 -61.359375 23.875 -61.359375 C 22.820312 -61.359375 21.972656 -60.992188 21.328125 -60.265625 C 20.679688 -59.546875 20.332031 -58.507812 20.28125 -57.15625 L 14.34375 -57.15625 C 14.445312 -60.507812 15.285156 -63.175781 16.859375 -65.15625 C 18.429688 -67.132812 20.519531 -68.125 23.125 -68.125 C 24.425781 -68.125 25.585938 -67.859375 26.609375 -67.328125 C 27.640625 -66.804688 28.804688 -66.070312 30.109375 -65.125 C 30.910156 -64.519531 31.570312 -64.066406 32.09375 -63.765625 C 32.625 -63.460938 33.140625 -63.3125 33.640625 -63.3125 C 34.640625 -63.3125 35.476562 -63.675781 36.15625 -64.40625 C 36.832031 -65.132812 37.195312 -66.125 37.25 -67.375 L 43.1875 -67.375 C 43.082031 -64.113281 42.238281 -61.503906 40.65625 -59.546875 C 39.082031 -57.597656 36.992188 -56.625 34.390625 -56.625 Z M 34.390625 -56.625 "/></g></g></g><g fill="#008bf9" fill-opacity="1"><g transform="translate(741.375942, 69.560761)"><g><path d="M 31.703125 0.90625 C 26.242188 0.90625 21.320312 -0.269531 16.9375 -2.625 C 12.550781 -4.976562 9.117188 -8.21875 6.640625 -12.34375 C 4.160156 -16.476562 2.921875 -21.125 2.921875 -26.28125 C 2.921875 -31.445312 4.160156 -36.09375 6.640625 -40.21875 C 9.117188 -44.351562 12.550781 -47.597656 16.9375 -49.953125 C 21.320312 -52.304688 26.242188 -53.484375 31.703125 -53.484375 C 37.160156 -53.484375 42.066406 -52.304688 46.421875 -49.953125 C 50.773438 -47.597656 54.203125 -44.351562 56.703125 -40.21875 C 59.210938 -36.09375 60.46875 -31.445312 60.46875 -26.28125 C 60.46875 -21.125 59.210938 -16.476562 56.703125 -12.34375 C 54.203125 -8.21875 50.773438 -4.976562 46.421875 -2.625 C 42.066406 -0.269531 37.160156 0.90625 31.703125 0.90625 Z M 31.703125 -9.46875 C 34.804688 -9.46875 37.609375 -10.179688 40.109375 -11.609375 C 42.609375 -13.035156 44.570312 -15.023438 46 -17.578125 C 47.425781 -20.128906 48.140625 -23.03125 48.140625 -26.28125 C 48.140625 -29.539062 47.425781 -32.445312 46 -35 C 44.570312 -37.550781 42.609375 -39.539062 40.109375 -40.96875 C 37.609375 -42.394531 34.804688 -43.109375 31.703125 -43.109375 C 28.597656 -43.109375 25.789062 -42.394531 23.28125 -40.96875 C 20.78125 -39.539062 18.816406 -37.550781 17.390625 -35 C 15.960938 -32.445312 15.25 -29.539062 15.25 -26.28125 C 15.25 -23.03125 15.960938 -20.128906 17.390625 -17.578125 C 18.816406 -15.023438 20.78125 -13.035156 23.28125 -11.609375 C 25.789062 -10.179688 28.597656 -9.46875 31.703125 -9.46875 Z M 31.703125 -9.46875 "/></g></g></g><g fill="#008bf9" fill-opacity="1"><g transform="translate(820.239705, 69.560761)"><g/></g></g><g fill="#008bf9" fill-opacity="1"><g transform="translate(856.967606, 69.560761)"><g><path d="M 46.9375 -9.765625 L 46.9375 0 L 6.234375 0 L 6.234375 -52.578125 L 45.96875 -52.578125 L 45.96875 -42.8125 L 18.328125 -42.8125 L 18.328125 -31.390625 L 42.734375 -31.390625 L 42.734375 -21.9375 L 18.328125 -21.9375 L 18.328125 -9.765625 Z M 46.9375 -9.765625 "/></g></g></g><g fill="#008bf9" fill-opacity="1"><g transform="translate(922.837654, 69.560761)"><g/></g></g><g fill="#008bf9" fill-opacity="1"><g transform="translate(959.565556, 69.560761)"><g><path d="M 6.234375 -52.578125 L 18.40625 -52.578125 L 18.40625 0 L 6.234375 0 Z M 6.234375 -52.578125 "/></g></g></g><g fill="#008bf9" fill-opacity="1"><g transform="translate(999.673373, 69.560761)"><g><path d="M 40.859375 -11.265625 L 16.453125 -11.265625 L 11.796875 0 L -0.671875 0 L 22.765625 -52.578125 L 34.78125 -52.578125 L 58.28125 0 L 45.515625 0 Z M 37.03125 -20.5 L 28.6875 -40.640625 L 20.359375 -20.5 Z M 37.03125 -20.5 "/></g></g></g></g></g></svg>